# Blender 3.3.1
# www.blender.org
mtllib FLORA-ALIEN.mtl
o Circle.008
v -0.090935 1.178222 4.938781
v -0.361663 1.680078 5.269021
v -0.365299 1.954163 5.313035
v -0.308992 1.689605 5.301646
v 0.031681 1.127384 4.991484
v 0.060293 0.499650 4.961253
v 0.027080 0.025277 4.943489
v -0.027047 0.025004 4.914540
v -0.060291 0.499650 4.896760
v -0.090935 1.178222 4.938781
v -0.361663 1.680078 5.269021
v -0.365299 1.954163 5.313035
v -0.308992 1.689605 5.301646
v 0.031681 1.127384 4.991484
v 0.060293 0.499650 4.961253
v -0.027077 0.025277 4.914524
v -0.060291 0.499650 4.896760
v 0.027050 0.025004 4.943473
v 0.000000 0.634410 4.997377
v 0.052999 1.502920 5.004859
v 0.467695 2.127656 5.087186
v 0.509535 2.465451 5.076048
v 0.504821 2.421460 5.051130
v 0.473013 2.140705 5.025016
v 0.041542 1.450562 4.872960
v 0.000000 0.634410 4.860631
v 0.000000 0.031901 4.959686
v 0.000000 0.031685 4.898344
v 0.000000 0.634410 4.997377
v 0.052999 1.502920 5.004859
v 0.467695 2.127656 5.087186
v 0.510896 2.481134 5.069996
v 0.473013 2.140705 5.025016
v 0.041542 1.450562 4.872960
v 0.000000 0.634410 4.860631
v 0.000000 0.031901 4.959686
v 0.000000 0.031685 4.898344
v 0.110071 1.255669 5.025328
v 0.208142 1.860958 5.541234
v 0.282302 1.840527 5.759596
v 0.304282 1.749054 5.875686
v 0.129602 1.874594 5.628397
v -0.038713 1.187940 5.035025
v -0.046054 0.586236 4.988051
v -0.009464 0.046160 4.956421
v 0.049477 0.045661 4.958223
v 0.089899 0.610355 4.991839
v 0.022955 1.442164 5.141841
v -0.111313 1.596388 4.834704
v -0.216813 2.372503 4.316590
v -0.288680 2.350479 4.116783
v -0.316640 2.225219 3.987403
v -0.155332 2.380328 4.187427
v 0.037361 1.512472 4.822503
v 0.045304 0.746445 4.869298
v -0.049850 0.058252 4.900414
v 0.009106 0.058690 4.901476
v -0.090682 0.776363 4.867942
v -0.027233 1.845294 4.711733
v -0.127508 1.444373 5.000174
v -0.648297 2.144320 4.917786
v -0.868602 2.123033 4.914409
v -0.992976 2.012568 4.895831
v -0.733892 2.157172 4.814030
v -0.086685 1.367739 4.856724
v -0.040073 0.674996 4.865666
v -0.022601 0.053124 4.910832
v -0.044223 0.052541 4.965684
v -0.088947 0.702105 4.992572
v -0.211117 1.665503 4.878528
v -0.124853 0.916493 4.847031
v -0.194415 1.153148 4.742982
v -0.326069 1.465601 4.370542
v -0.454883 1.437609 4.162845
v -0.493845 1.370791 4.066070
v -0.252600 1.464048 4.305511
v 0.015871 0.930252 4.817261
v 0.032778 0.459007 4.861600
v 0.003577 0.036186 4.900218
v -0.054479 0.035808 4.910689
v -0.063627 1.122522 4.730806
v 0.107905 0.977445 4.811296
v 0.641341 1.457768 4.757603
v 0.891991 1.424793 4.686716
v 0.988408 1.372109 4.682573
v 0.681113 1.467581 4.868158
v 0.100033 0.930252 4.987661
v 0.052243 0.458083 4.990663
v 0.025949 0.036228 4.943547
v 0.036200 0.035865 4.873831
v 0.074834 0.476352 4.830007
v 0.202394 1.114344 4.930796
v 0.074737 0.614095 4.854286
v 0.412886 0.938490 4.818659
v 0.633243 0.879003 4.763286
v 0.438491 0.944808 4.889833
v 0.043625 0.646843 4.948585
v 0.033633 0.294907 4.968700
v 0.016706 0.023323 4.938367
v 0.023305 0.023090 4.893485
v -0.064438 0.689269 5.032366
v -0.372930 0.939596 5.105518
v -0.556170 0.880603 5.151336
v -0.020288 0.024185 4.978801
v -0.010570 0.023219 5.009353
v -0.086832 0.674826 4.984351
v -0.384450 0.934546 5.062966
vn 0.4687 0.0333 -0.8827
vn 0.4548 0.2778 -0.8462
vn 0.4714 0.0325 -0.8813
vn 0.4925 0.4437 -0.7487
vn 0.5022 0.1436 -0.8527
vn 0.4964 0.4088 -0.7658
vn -0.9912 0.1182 -0.0600
vn -0.9410 0.3303 -0.0738
vn -0.9199 0.3846 -0.0769
vn 0.0171 -0.0623 0.9979
vn 0.0079 -0.0613 0.9981
vn -0.0294 -0.0602 0.9978
vn 0.1129 -0.3518 0.9292
vn -0.1600 -0.5963 0.7867
vn 0.1093 -0.1819 0.9772
vn 0.2747 -0.8034 -0.5283
vn 0.3752 -0.6922 -0.6165
vn 0.1051 -0.9884 0.1097
vn -0.0350 -0.0489 -0.9982
vn -0.0240 -0.0478 -0.9986
vn 0.0166 -0.0475 -0.9987
vn -0.1490 -0.2910 -0.9450
vn 0.1853 -0.5089 -0.8406
vn -0.1210 -0.1387 -0.9829
vn -0.2208 -0.6764 0.7026
vn -0.1737 -0.9844 0.0267
vn -0.1132 -0.8205 0.5604
vn -0.9468 -0.0541 -0.3173
vn -0.9436 -0.0530 -0.3268
vn -0.9296 -0.0524 -0.3649
vn -0.9281 -0.3152 -0.1982
vn -0.7090 -0.5455 -0.4468
vn -0.9610 -0.1559 -0.2285
vn 0.5378 -0.6876 0.4879
vn -0.0725 -0.9913 0.1096
vn 0.4625 -0.8178 0.3426
vn -0.1751 -0.2797 -0.9440
vn -0.1551 -0.0843 -0.9843
vn -0.1729 -0.0782 -0.9818
vn -0.1717 -0.2847 -0.9431
vn -0.2128 -0.5880 -0.7804
vn -0.2934 -0.7751 0.5596
vn -0.3483 -0.7000 0.6235
vn -0.1997 -0.9733 -0.1131
vn -0.2246 -0.6827 -0.6953
vn -0.2002 -0.9536 -0.2247
vn 0.9921 -0.0778 0.0987
vn 0.9915 -0.0773 0.1051
vn 0.9868 -0.0770 0.1428
vn 0.9092 -0.4135 0.0484
vn 0.7150 -0.6771 0.1742
vn 0.9702 -0.2422 0.0121
vn 0.8665 -0.3203 0.3829
vn 0.9853 -0.0713 0.1555
vn 0.9864 -0.0775 0.1447
vn 0.8301 -0.4082 0.3800
vn 0.4716 -0.0000 -0.8818
vn 0.4632 0.4735 -0.7492
vn -0.9419 0.3290 -0.0678
vn -0.9737 0.2278 -0.0075
vn -0.9150 0.4005 -0.0483
vn -0.9205 0.3841 -0.0723
vn -0.9916 0.1193 -0.0493
vn -0.9995 0.0282 0.0161
vn -0.9995 0.0283 0.0162
vn -1.0000 -0.0000 -0.0000
vn -0.0310 -0.0605 0.9977
vn 0.2059 -0.9026 0.3780
vn 0.0183 -0.0477 -0.9987
vn -0.4744 -0.8164 -0.3291
vn -0.9288 -0.0527 -0.3667
vn -0.4692 -0.8544 0.2232
vn -0.1765 -0.0774 -0.9813
vn 0.9863 -0.0777 0.1454
vn -0.9161 -0.0922 0.3903
vn -0.7453 -0.5298 0.4048
vn -0.8029 -0.4329 0.4097
vn 0.2831 -0.9590 0.0129
vn 0.2120 -0.9766 -0.0366
vn -0.4129 -0.8682 -0.2752
vn -0.4616 -0.8178 -0.3437
vn 0.2350 -0.9712 0.0389
vn 0.1916 -0.9813 0.0182
vn -0.2185 -0.9620 0.1640
vn -0.1082 -0.9707 0.2144
vn -0.1488 -0.9617 0.2304
vn 0.3127 -0.9494 0.0280
vt 0.000000 0.000000
vt 0.000000 0.000000
vt 0.000000 0.000000
vt 0.000000 0.000000
vt 0.000000 0.000000
vt 0.000000 0.000000
vt 0.000000 0.000000
vt 0.000000 0.000000
vt 0.000000 0.000000
vt 0.000000 0.000000
vt 0.000000 0.000000
vt 0.000000 0.000000
vt 0.000000 0.000000
vt 0.000000 0.000000
vt 0.000000 0.000000
vt 0.000000 0.000000
vt 0.000000 0.000000
vt 0.000000 0.000000
vt 0.000000 0.000000
vt 0.000000 0.000000
vt 0.000000 0.000000
vt 0.000000 0.000000
vt 0.000000 0.000000
vt 0.000000 0.000000
vt 0.000000 0.000000
vt 0.000000 0.000000
vt 0.000000 0.000000
vt 0.000000 0.000000
vt 0.000000 0.000000
vt 0.000000 0.000000
vt 0.000000 0.000000
vt 0.000000 0.000000
vt 0.000000 0.000000
vt 0.000000 0.000000
vt 0.000000 0.000000
vt 0.000000 0.000000
vt 0.000000 0.000000
vt 0.000000 0.000000
vt 0.000000 0.000000
vt 0.000000 0.000000
vt 0.000000 0.000000
vt 0.000000 0.000000
vt 0.000000 0.000000
vt 0.000000 0.000000
vt 0.000000 0.000000
vt 0.000000 0.000000
vt 0.000000 0.000000
vt 0.000000 0.000000
vt 0.000000 0.000000
vt 0.000000 0.000000
vt 0.000000 0.000000
vt 0.000000 0.000000
vt 0.000000 0.000000
vt 0.000000 0.000000
vt 0.000000 0.000000
vt 0.000000 0.000000
vt 0.000000 0.000000
vt 0.000000 0.000000
vt 0.000000 0.000000
vt 0.000000 0.000000
vt 0.000000 0.000000
vt 0.000000 0.000000
vt 0.000000 0.000000
vt 0.000000 0.000000
vt 0.000000 0.000000
vt 0.000000 0.000000
vt 0.000000 0.000000
vt 0.000000 0.000000
vt 0.000000 0.000000
vt 0.000000 0.000000
vt 0.000000 0.000000
vt 0.000000 0.000000
vt 0.000000 0.000000
vt 0.000000 0.000000
vt 0.000000 0.000000
vt 0.000000 0.000000
vt 0.000000 0.000000
vt 0.000000 0.000000
vt 0.000000 0.000000
vt 0.000000 0.000000
vt 0.000000 0.000000
vt 0.000000 0.000000
vt 0.000000 0.000000
vt 0.000000 0.000000
vt 0.000000 0.000000
vt 0.000000 0.000000
vt 0.000000 0.000000
vt 0.000000 0.000000
vt 0.000000 0.000000
vt 0.000000 0.000000
vt 0.000000 0.000000
vt 0.000000 0.000000
vt 0.000000 0.000000
vt 0.000000 0.000000
vt 0.000000 0.000000
vt 0.000000 0.000000
vt 0.000000 0.000000
vt 0.000000 0.000000
vt 0.000000 0.000000
vt 0.000000 0.000000
vt 0.000000 0.000000
vt 0.000000 0.000000
vt 0.000000 0.000000
vt 0.000000 0.000000
vt 0.000000 0.000000
vt 0.000000 0.000000
vt 0.000000 0.000000
s 1
usemtl GRASS
f 9/9/1 5/5/2 6/6/3
f 2/2/4 3/3/5 4/4/6
f 17/17/1 14/14/2 15/15/3
f 11/11/4 12/12/5 13/13/6
f 32/32/7 33/33/8 31/31/9
f 47/47/10 44/44/11 46/46/12
f 38/38/13 48/48/14 43/43/15
f 40/40/16 41/41/17 42/42/18
f 58/58/19 55/55/20 56/56/21
f 49/49/22 59/59/23 54/54/24
f 52/52/25 53/53/26 51/51/27
f 69/69/28 66/66/29 68/68/30
f 60/60/31 70/70/32 65/65/33
f 63/63/34 64/64/35 62/62/36
f 71/71/37 78/78/38 80/80/39
f 71/71/37 77/77/40 78/78/38
f 71/71/37 81/81/41 77/77/40
f 74/74/42 75/75/43 76/76/44
f 72/72/45 73/73/46 81/81/41
f 91/91/47 88/88/48 90/90/49
f 82/82/50 92/92/51 87/87/52
f 93/93/53 98/98/54 100/100/55
f 93/93/53 97/97/56 98/98/54
f 8/8/57 9/9/1 6/6/3 7/7/57
f 1/1/58 5/5/2 9/9/1
f 13/13/6 14/14/2 10/10/58 11/11/4
f 16/16/57 17/17/1 15/15/3 18/18/57
f 10/10/58 14/14/2 17/17/1
f 24/24/59 25/25/60 20/20/61 21/21/62
f 24/24/59 21/21/62 22/22/63 23/23/63
f 26/26/64 19/19/65 20/20/61 25/25/60
f 27/27/66 19/19/65 26/26/64 28/28/66
f 33/33/8 34/34/60 30/30/61 31/31/9
f 35/35/64 29/29/65 30/30/61 34/34/60
f 4/4/6 5/5/2 1/1/58 2/2/4
f 36/36/66 29/29/65 35/35/64 37/37/66
f 43/43/15 44/44/11 47/47/10 38/38/13
f 46/46/12 44/44/11 45/45/67
f 54/54/24 55/55/20 58/58/19 49/49/22
f 48/48/14 39/39/68 42/42/18
f 39/39/68 40/40/16 42/42/18
f 38/38/13 39/39/68 48/48/14
f 56/56/21 55/55/20 57/57/69
f 65/65/33 66/66/29 69/69/28 60/60/31
f 59/59/23 50/50/70 53/53/26
f 50/50/70 51/51/27 53/53/26
f 49/49/22 50/50/70 59/59/23
f 68/68/30 66/66/29 67/67/71
f 87/87/52 88/88/48 91/91/47 82/82/50
f 70/70/32 61/61/72 64/64/35
f 61/61/72 62/62/36 64/64/35
f 60/60/31 61/61/72 70/70/32
f 80/80/39 78/78/38 79/79/73
f 81/81/41 73/73/46 76/76/44
f 73/73/46 74/74/42 76/76/44
f 71/71/37 72/72/45 81/81/41
f 90/90/49 88/88/48 89/89/74
f 104/104/75 105/105/75 101/101/76 106/106/77
f 92/92/51 83/83/78 86/86/79
f 86/86/79 84/84/80 85/85/81
f 83/83/78 84/84/80 86/86/79
f 82/82/50 83/83/78 92/92/51
f 100/100/55 98/98/54 99/99/74
f 97/97/56 94/94/82 96/96/83
f 94/94/82 95/95/84 96/96/83
f 93/93/53 94/94/82 97/97/56
f 106/106/77 101/101/76 102/102/85 107/107/86
f 102/102/85 103/103/87 107/107/86
